<svg id="Layer_1" data-name="Layer 1" xmlns="http://www.w3.org/2000/svg" viewBox="0 0 40 40"><defs><style>.cls-1{fill:#fff;}.cls-2{fill:#252525;}</style></defs><path class="cls-1" d="M13.13,39.55a5,5,0,0,1-3.77-3.23,8.9,8.9,0,0,1-.55-1.5c-.36-1.17-.76-2.49-2.06-3l-.82-.29c-2.38-.83-4.84-1.69-5.35-4.3a.88.88,0,0,0-.13-.43V25.36A30.36,30.36,0,0,1,1.84,22c.15-.32.3-.65.44-1a2.35,2.35,0,0,0,0-2.13c-.17-.39-.36-.79-.54-1.19a24.7,24.7,0,0,1-1.29-3.1v-1.4a.64.64,0,0,0,.1-.32C1,10.19,3.58,9.31,6,8.45l.65-.23C8,7.69,8.45,6.35,8.81,5.16a7.64,7.64,0,0,1,.55-1.47A4.76,4.76,0,0,1,13.85.45,5,5,0,0,1,15.91.9a7.6,7.6,0,0,1,1.52.69,5.75,5.75,0,0,0,2.61.9,2.68,2.68,0,0,0,1.11-.25c1-.46,2-.9,2.93-1.34A5,5,0,0,1,26.15.45a4.78,4.78,0,0,1,4.47,3.17l.12.3c.35.93.7,1.85,1,2.79a2.46,2.46,0,0,0,1.51,1.51c1,.37,2.06.76,3.08,1.15a4.92,4.92,0,0,1,2.83,2.7A4.86,4.86,0,0,1,39.08,16q-.66,1.49-1.35,3c-.57,1.32.09,2.56.68,3.65A9,9,0,0,1,39.07,24a5,5,0,0,1,.13,3.94,4.91,4.91,0,0,1-2.84,2.68c-1,.4-2,.78-3.08,1.16-1.32.55-1.73,1.88-2.08,3a8,8,0,0,1-.56,1.5,5,5,0,0,1-3.9,3.22h-.11a1.46,1.46,0,0,0-1,0h-.18a23.44,23.44,0,0,1-3.21-1.3L21,37.69a2.35,2.35,0,0,0-1-.23,2.47,2.47,0,0,0-.91.19c-.49.21-1,.44-1.47.67a15.57,15.57,0,0,1-3.16,1.24ZM20,34.93a4.9,4.9,0,0,1,2,.46l1.43.64,1.65.75a2.55,2.55,0,0,0,1.06.24,2.24,2.24,0,0,0,2.1-1.55c.15-.38.3-.78.44-1.19.74-2.07,1.51-4.21,3.73-4.87,2.7-.93,4-1.42,4.43-2.43s-.16-2.3-1.42-4.86a4.82,4.82,0,0,1,0-4.27c.14-.36.33-.74.53-1.14.61-1.23,1.31-2.62.86-3.75a2.33,2.33,0,0,0-1.5-1.28l-1-.36c-.72-.27-1.43-.53-2.14-.81a4.69,4.69,0,0,1-2.74-2.74A12.8,12.8,0,0,1,29,6.38C28.48,4.86,27.86,3,26.19,3a2.85,2.85,0,0,0-1.14.27c-.44.18-.9.4-1.36.62a9.23,9.23,0,0,1-3.8,1.21,3.65,3.65,0,0,1-1.49-.31A14.24,14.24,0,0,1,16.64,4a11.19,11.19,0,0,0-2.59-1c-2,0-2.51,1.77-2.94,3.18a7.79,7.79,0,0,1-.57,1.54c-.72,2.13-2.75,2.85-4.72,3.55l-1.16.42A2.55,2.55,0,0,0,3.14,13a2.55,2.55,0,0,0,.15,2c2.41,4.71,2.23,5.38-.08,10.08a2.29,2.29,0,0,0,0,1.88c.5,1.06,1.92,1.53,3.18,1.94a10.4,10.4,0,0,1,1.36.5,4.72,4.72,0,0,1,2.82,2.79c.23.59.45,1.19.68,1.78s.35.95.53,1.42a2.12,2.12,0,0,0,2,1.54,7.16,7.16,0,0,0,2.9-1c.44-.22.86-.43,1.21-.56A5.16,5.16,0,0,1,20,34.93Z"/><path class="cls-2" d="M25.69,40a1.07,1.07,0,0,1,.86,0Z"/><path class="cls-1" d="M15,27.92a1.31,1.31,0,0,1-.78-.28,1.26,1.26,0,0,1-.19-1.8L24,12.61a1.27,1.27,0,0,1,1-.53,1.18,1.18,0,0,1,.41.07,1.27,1.27,0,0,1,.86,1.23,1.18,1.18,0,0,1-.27.76L23.81,17,16.05,27.37A1.28,1.28,0,0,1,15,27.92Z"/><path class="cls-1" d="M15,17.94A2.94,2.94,0,0,1,12.09,15,2.81,2.81,0,0,1,12.93,13,2.91,2.91,0,0,1,15,12.08a2.93,2.93,0,0,1,0,5.86Z"/><path class="cls-1" d="M25,27.92a3,3,0,0,1-2.92-3,2.93,2.93,0,1,1,2.94,3Z"/></svg>