<svg id="Layer_1" data-name="Layer 1" xmlns="http://www.w3.org/2000/svg" viewBox="0 0 40 40"><defs><style>.cls-1{fill:#fff;}</style></defs><path class="cls-1" d="M29.81,40c-2-.56-2.22-2.18-2.12-3.45H12.24v.16c0,.27,0,.54,0,.8a2.47,2.47,0,0,1-1.55,2.3l-.29.12-.14,0-3.4,0-.18,0-.21-.08a2.43,2.43,0,0,1-1.69-2.25c0-.49,0-1,0-1.48s0-.84,0-1.26a.88.88,0,0,0-.14-.44,6.73,6.73,0,0,1-1.47-4.36c0-.88,0-1.76,0-2.64V26.38a5.53,5.53,0,0,1,.91-3.14H2.88A1.93,1.93,0,0,1,.75,21.12c0-.3,0-.53,0-.75a1.92,1.92,0,0,1,1.65-1.72c.32,0,.63,0,.95,0a8.21,8.21,0,0,1,1,.05,3.16,3.16,0,0,1,2.07,1.18l.83-1.74c.57-1.18,1.13-2.36,1.7-3.53a3.56,3.56,0,0,1,3.4-2.07h7.09a9.49,9.49,0,0,1,1.2-8.29A9.59,9.59,0,0,1,28.54,0a9.66,9.66,0,0,1,8.78,5.8,9.49,9.49,0,0,1-4.53,12.41l.84,1.67a3.25,3.25,0,0,1,2.66-1.2h1.06a1.92,1.92,0,0,1,1.88,1.76,7.49,7.49,0,0,1,0,.95,1.92,1.92,0,0,1-2,1.91H35.82a5.75,5.75,0,0,1,1,3.12v4a6.39,6.39,0,0,1-1.44,4,.79.79,0,0,0-.15.42c0,.52,0,1,0,1.56V37a2.61,2.61,0,0,1-2,3H29.81Zm3.57-4a8.81,8.81,0,0,1-1.24.36,11.1,11.1,0,0,1-1.62.1h-.26a2,2,0,0,0-.92.11c-.09.11,0,.54,0,1a.86.86,0,0,0,.83.79h1.3c.44,0,.87,0,1.31,0a.81.81,0,0,0,.79-.7c0-.47,0-.94,0-1.4v-.3Zm-27,.13c0,.48,0,.93,0,1.37a.84.84,0,0,0,.85.82H9.76a.84.84,0,0,0,.85-.75,6.87,6.87,0,0,0,0-.91v-.25H9.5a6.49,6.49,0,0,1-3.13-.59ZM6.23,23.48c-.31,0-.42.09-.5.22-.29.51-.58,1-.83,1.57a1.49,1.49,0,0,0-.12.62c0,.47,0,.94,0,1.41,0,1.23,0,2.51.08,3.74A4.21,4.21,0,0,0,9,34.83c1.68,0,3.26,0,4.85,0H31a3.88,3.88,0,0,0,3.41-1.87,5.49,5.49,0,0,0,.85-3c0-.91,0-1.83,0-2.73v-.85a4.08,4.08,0,0,0-1-2.64.58.58,0,0,0-.52-.24H6.23Zm26.51-1.62-1.52-3.12a10.31,10.31,0,0,1-2.68.37,9.47,9.47,0,0,1-8.29-4.82.45.45,0,0,0-.24-.12H12.33a1.93,1.93,0,0,0-1.9,1.13c-.32.66-.64,1.32-.95,2s-.51,1.07-.77,1.6L7.66,21l-.4.82Zm4-.28h.49c.24,0,.32,0,.33-.53,0-.8-.06-.8-.33-.82h-1a1.9,1.9,0,0,0-1.74,1.11c-.06.09-.07.17,0,.2s.08.05.19.05h2.08Zm-32,0h.51c.09,0,.16,0,.18-.07s0-.12,0-.2a2.08,2.08,0,0,0-2-1.1,1.79,1.79,0,0,0-.92.13c-.09.1-.09.36-.08.76v.17c0,.2.06.32.35.32h2ZM28.54,1.67a7.89,7.89,0,0,0,0,15.77h0a7.89,7.89,0,0,0,0-15.77l0-.21Z"/><path class="cls-1" d="M28.53,29.9l-.9,0a1.23,1.23,0,0,1-.9-.37,1.29,1.29,0,0,1-.27-1,2.51,2.51,0,0,1,2-2.44c1.11-.26,2.21-.5,3.32-.73a2.25,2.25,0,0,1,.44,0,1.58,1.58,0,0,1,1.62,1.73v.37c0,.3,0,.6,0,.91a1.39,1.39,0,0,1-1.41,1.52c-.34,0-.67,0-1,0H28.53Zm.79-1.47h3.41c0-.51,0-1,0-1.54l0-.08h-.05l-1.17.26c-1,.22-2.05.44-3.06.69a.91.91,0,0,0-.66.68Z"/><path class="cls-1" d="M9.28,30c-.59,0-1.21,0-1.81-.11-.94-.12-1.35-.6-1.36-1.61v-.15c0-.37,0-.73,0-1.09a1.61,1.61,0,0,1,1.6-1.7,1.53,1.53,0,0,1,.36,0c1.25.23,2.45.5,3.59.8a2.64,2.64,0,0,1,1.87,2.65A1.12,1.12,0,0,1,12.36,30H10.28l-.22.05Zm-2-1.56h5a1.22,1.22,0,0,0-.93-.81l-1.53-.33-2.41-.53-.12,0s0,0,0,0a.41.41,0,0,0,0,.16v.47q0,.45,0,.9c0,.1,0,.14,0,.15Z"/><path class="cls-1" d="M16,31.6a1.19,1.19,0,0,1-.74-.22.51.51,0,0,1-.18-.46c.05-.35.35-.56.82-.58h8.29c.52,0,.84.27.83.64s-.37.61-.88.61H16Z"/><path class="cls-1" d="M31.55,7.91H30.5a2.41,2.41,0,0,0-.27-.66h1.32a.63.63,0,0,0,0-1.25H25.64a.63.63,0,1,0,0,1.25h2.41a1.29,1.29,0,0,1,1.12.66H25.64a.63.63,0,1,0,0,1.25h3.53a1.28,1.28,0,0,1-1.12.65H25.64a.63.63,0,0,0-.46,1.06l3.4,3.61a.63.63,0,0,0,.46.19.6.6,0,0,0,.43-.17.62.62,0,0,0,0-.88l-2.4-2.56h1a2.53,2.53,0,0,0,2.45-1.9h1.05a.63.63,0,0,0,0-1.25Z"/><path class="cls-1" d="M16,33.6a1.19,1.19,0,0,1-.74-.22.51.51,0,0,1-.18-.46c.05-.35.35-.56.82-.58h8.29c.52,0,.84.27.83.64s-.37.61-.88.61H16Z"/></svg>