<svg id="Layer_1" data-name="Layer 1" xmlns="http://www.w3.org/2000/svg" viewBox="0 0 40 40"><defs><style>.cls-1{fill:#fff;}</style></defs><path class="cls-1" d="M6,39.05A6,6,0,0,1,.1,34.31c0-.18,0-20.78,0-21A9.32,9.32,0,0,1,8.63,5.72c.92,0,1.84,0,2.76,0h3.13a1.22,1.22,0,0,0,.62-.16Q18.7,3.6,22.26,1.69A6.3,6.3,0,0,1,25.2.94a6,6,0,0,1,5.34,3.28c.25.47.48.94.71,1.42a9.49,9.49,0,0,1,8.65,9.5v2.1q0,7.89,0,15.77a6,6,0,0,1-6,6H6ZM6,12.84a3.64,3.64,0,0,0-2.19.72,4,4,0,0,0-1.58,3.55c0,3.77,0,7.53,0,11.3v4.38a4.44,4.44,0,0,0,.1,1,3.82,3.82,0,0,0,3.91,3H34a3.77,3.77,0,0,0,3.52-2.92A7.24,7.24,0,0,0,37.68,32c0-.36,0-.71,0-1.06l0-.13H35.82l-1.76,0c-.91,0-1.68,0-2.39-.07a5.8,5.8,0,0,1-4.22-2.31,5.94,5.94,0,0,1-1.17-4.74,6.07,6.07,0,0,1,6.07-5h5.32s0-.77,0-.93a8.57,8.57,0,0,0-.1-2,3.74,3.74,0,0,0-3.81-3H6Zm31.7,15.8v-.1c0-.95,0-1.84,0-2.73v-2.1q0-1.29,0-2.58V21H32.4a4.86,4.86,0,0,0-.9.07,3.79,3.79,0,0,0,.73,7.52h5.42Zm-3.46-18a3.31,3.31,0,0,1,.54.06l.12,0a5.66,5.66,0,0,1,1.52.46l.33.15-.2-.3a8.22,8.22,0,0,0-3.75-2.75l-.22-.07.1.21c.34.68.65,1.29.94,1.91.13.28.21.33.37.33Zm-24-2.7H9.21a6.82,6.82,0,0,0-5.73,3l-.2.29.32-.14a6.27,6.27,0,0,1,1.51-.44l.26,0a1.12,1.12,0,0,0,.44-.08l4.56-2.46,0-.18ZM25.22,3.18a4.14,4.14,0,0,0-2,.52L15.3,8l-4.54,2.44.05.19h6.26a1.12,1.12,0,0,0,.51-.15l1.07-.58q4.74-2.57,9.49-5.1l.11-.06-.08-.09A3.72,3.72,0,0,0,25.22,3.18Zm-2.85,7.23,0,.19h8.83l-.61-1.21c-.43-.87-.87-1.74-1.29-2.62l-.05-.09Z"/><path class="cls-1" d="M32.21,27a2.14,2.14,0,0,1-1.5-3.64,2.09,2.09,0,0,1,1.51-.63,2.14,2.14,0,1,1,0,4.27Zm0-3a.86.86,0,0,0-.82.81.86.86,0,0,0,.79.83h0a.81.81,0,0,0,.61-1.39.82.82,0,0,0-.57-.25Z"/></svg>