<svg id="Layer_1" data-name="Layer 1" xmlns="http://www.w3.org/2000/svg" viewBox="0 0 40 40"><defs><style>.cls-1{fill:#fff;}</style></defs><path class="cls-1" d="M17.52,33.91a4.17,4.17,0,0,1-4.29-4.26c0-1.25,0-2.51,0-3.76,0-.12,0-.14-.12-.2l-3-1.57L6.48,22.17a1.63,1.63,0,0,1,0-3l3.61-1.92,3-1.58c.14-.08.16-.11.16-.25v-.14c0-1.27,0-2.57,0-3.86a4.1,4.1,0,0,1,4-4c3,0,6,0,9.06,0h9.32a4.18,4.18,0,0,1,4,3.31l.08,0V30.55l-.1.09a.49.49,0,0,0,0,.17,1.6,1.6,0,0,1-.05.21,4.21,4.21,0,0,1-4.14,2.89H17.52ZM9.25,21.49l5.17,2.75a1.21,1.21,0,0,1,.71,1.17c0,1.33,0,2.66,0,4v.18A2.29,2.29,0,0,0,17.56,32H35.41a2.3,2.3,0,0,0,2.45-2.47V11.73A2.3,2.3,0,0,0,35.4,9.28H17.58a2.29,2.29,0,0,0-2.46,2.45v4.21A1.11,1.11,0,0,1,14.47,17c-.38.19-.76.39-1.13.6l-5.66,3Z"/><path class="cls-1" d="M3.6,39.75l-.09-.1s-.07,0-.13,0l-.17,0a4.21,4.21,0,0,1-3-3.94c0-1.21,0-2.41,0-3.62V4.59A4.19,4.19,0,0,1,3.46.37,4.14,4.14,0,0,1,4.55.25H19.9a4.17,4.17,0,0,1,4.29,4.27c0,.4,0,.79,0,1.19a1,1,0,0,1-.9,1h0a1,1,0,0,1-1-1c0-.24,0-.49,0-.73V4.35A2.31,2.31,0,0,0,20,2.14l-.13.07c-.22.45-.44.9-.67,1.34l-.54,1.11A2.3,2.3,0,0,1,16.49,6H8A2.31,2.31,0,0,1,5.76,4.67l-.37-.74c-.28-.57-.57-1.14-.84-1.71,0-.08,0-.08-.13-.08A2.32,2.32,0,0,0,2.15,4.31a1.93,1.93,0,0,0,0,.24V35.44a2.3,2.3,0,0,0,1.62,2.31,2.39,2.39,0,0,0,.77.11H19.92a2.28,2.28,0,0,0,2.37-2.26,1,1,0,0,1,.95-1,1,1,0,0,1,.94,1.07,4.16,4.16,0,0,1-3.39,4l0,.09Zm13-35.62c.23,0,.27-.08.28-.1.29-.53.56-1.07.83-1.62l.13-.25H6.63l.1.19c.27.56.55,1.1.83,1.65,0,0,.07.13.31.13h8.7Z"/><path class="cls-1" d="M7,37.16a1,1,0,0,1-.89-1,.94.94,0,0,1,.94-.9H17.52a.94.94,0,0,1,.24,1.8,1,1,0,0,1-.45.09l-.15-.3v.3H7.28l-.15-.3v.3Z"/><path class="cls-1" d="M26.47,30A3.52,3.52,0,0,1,23,26.81c-.55,0-1.07,0-1.59,0H19.52a1.73,1.73,0,0,1-1.47-.65,1.78,1.78,0,0,1-.15-1.63c.18-.57.38-1.13.57-1.7.36-1,.73-2.11,1-3.17a6.12,6.12,0,0,0,.19-1.56c0-.32,0-.64.07-1a6.78,6.78,0,0,1,6.65-5.85,5.69,5.69,0,0,1,.83.06A6.76,6.76,0,0,1,33.18,17a11.15,11.15,0,0,1,.1,1.15,7.91,7.91,0,0,0,.06.83A11.1,11.1,0,0,0,34,21.36c.13.36.26.72.37,1.09s.28.85.43,1.27.19.56.28.84a1.69,1.69,0,0,1-.16,1.56,1.72,1.72,0,0,1-1.42.66H30.05A3.62,3.62,0,0,1,26.48,30Zm-1.61-3.25a1.65,1.65,0,0,0,3.25,0H24.86Zm1.43-13.61a4.88,4.88,0,0,0-4.63,4.16c0,.32-.06.65-.08,1A7.21,7.21,0,0,1,21.37,20c-.32,1.13-.71,2.26-1.08,3.35l-.54,1.56,8.48,0h5l-.11-.32c-.18-.51-.35-1-.5-1.5s-.25-.75-.38-1.12a13.46,13.46,0,0,1-.77-2.85,8.48,8.48,0,0,1-.06-.88A7.87,7.87,0,0,0,31.26,17a4.89,4.89,0,0,0-4.79-3.85Z"/></svg>