<svg id="Layer_1" data-name="Layer 1" xmlns="http://www.w3.org/2000/svg" viewBox="0 0 40 40"><defs><style>.cls-1{fill:#fff;}</style></defs><path class="cls-1" d="M26.39,40a.91.91,0,0,0-.53-.15,11.47,11.47,0,0,1-6.79-3.56,1.51,1.51,0,0,0-1.27-.54c-4.21,0-8.41,0-12.62,0A4.34,4.34,0,0,1,1,33.17,4.07,4.07,0,0,1,.6,31.32Q.6,19.78.6,8.25A4.33,4.33,0,0,1,5,3.87c.35,0,.43-.09.42-.43a3.13,3.13,0,0,1,6.23-.59,1.34,1.34,0,0,1,0,.2c0,.25-.07.61.06.74s.54.06.82.06c3.35,0,6.71,0,10.06,0,.35,0,.42-.1.41-.43a3.09,3.09,0,0,1,6.13-.69,3.72,3.72,0,0,1,0,.74c0,.32.1.37.39.37A4.36,4.36,0,0,1,34,7.38a5.62,5.62,0,0,1,.09,1.16c0,3.13,0,6.26,0,9.39a.58.58,0,0,0,.26.55,11.56,11.56,0,0,1,5,8.17,11.4,11.4,0,0,1-2.87,9.29,11.48,11.48,0,0,1-7.58,3.93c-.06,0-.11,0-.12.08Zm-9.1-6c-2.32-4.95-2-9.62,1.65-13.7s8.32-4.79,13.43-3c0-1.44,0-2.87,0-4.3,0-.31-.15-.31-.38-.31H2.7c-.3,0-.39.06-.39.38q0,9,0,18.08a3.26,3.26,0,0,0,.1.88,2.67,2.67,0,0,0,2.72,2H17Zm10.32,4.25A10.07,10.07,0,1,0,17.55,28.16,10.13,10.13,0,0,0,27.61,38.22ZM17.31,11H32c.32,0,.42-.07.4-.4,0-.73,0-1.46,0-2.18a2.7,2.7,0,0,0-2.92-2.83c-.21,0-.26.06-.25.26,0,.47,0,.94,0,1.4,0,.69-.31,1-1,1H24c-.66,0-1-.28-1-.94a12.34,12.34,0,0,1,0-1.36c0-.29-.06-.37-.36-.37-1.87,0-3.74,0-5.61,0-1.66,0-3.32,0-5,0-.34,0-.42.1-.4.41s0,.86,0,1.29a.87.87,0,0,1-1,1H6.35a.85.85,0,0,1-.94-1c0-.48,0-1,0-1.44,0-.16,0-.26-.22-.27A2.66,2.66,0,0,0,2.37,7.81c-.13.9,0,1.82-.06,2.72,0,.35.06.45.43.45ZM10,4.7c0-.5,0-1,0-1.48a1.41,1.41,0,1,0-2.82,0c0,1,0,2,0,3,0,.18,0,.27.24.27q1.17,0,2.34,0c.21,0,.25-.08.25-.27C10,5.73,10,5.21,10,4.7Zm14.77,0c0,.52,0,1,0,1.56,0,.21,0,.29.27.29q1.11,0,2.22,0c.23,0,.27-.09.27-.29,0-1,0-2,0-3A1.38,1.38,0,0,0,26.09,1.8a1.34,1.34,0,0,0-1.36,1.43C24.71,3.71,24.72,4.19,24.72,4.67Z"/><path class="cls-1" d="M26.17,26v-2.8c0-.62.37-1,.88-1a.86.86,0,0,1,.84.93c0,1,0,1.94,0,2.92,0,.58,0,1.17,0,1.75,0,.33.06.44.42.43,1.08,0,2.16,0,3.23,0a.85.85,0,0,1,1,.79.83.83,0,0,1-.89.91c-1.5,0-3,0-4.51,0-.61,0-.92-.39-.92-1C26.17,27.88,26.17,26.92,26.17,26Z"/></svg>