<svg id="Layer_1" data-name="Layer 1" xmlns="http://www.w3.org/2000/svg" viewBox="0 0 40 40"><defs><style>.cls-1{fill:#fff;}</style></defs><path class="cls-1" d="M38.6,26.67a8.63,8.63,0,0,0-7.71-4.8,8.93,8.93,0,0,0-2.8.46.22.22,0,0,0-.14.09,10.48,10.48,0,0,0-1.74-.72,12,12,0,0,0,3.64-8.61A11.82,11.82,0,0,0,25.8,4,12,12,0,0,0,17.73.88,12.17,12.17,0,0,0,9.18,21.71a14.37,14.37,0,0,0-5.8,3.83,11.5,11.5,0,0,0-2.17,4,12.36,12.36,0,0,0-.71,3.8A5.68,5.68,0,0,0,2,37.47a5.68,5.68,0,0,0,4.12,1.65H30.38A11.54,11.54,0,0,0,32.45,39a8.65,8.65,0,0,0,6.15-12.3Zm-20.89-24A10.38,10.38,0,0,1,25.09,5.7a10.39,10.39,0,0,1-7.4,17.72,10.36,10.36,0,0,1-7.36-3A10.42,10.42,0,0,1,17.7,2.62ZM6.27,37.38H5.76A3.69,3.69,0,0,1,2.3,34.19,9.44,9.44,0,0,1,2.87,30a8.37,8.37,0,0,1,2-3.58,12.25,12.25,0,0,1,5.77-3.32.34.34,0,0,1,.13,0,.39.39,0,0,1,.24.08,11.77,11.77,0,0,0,5.84,2q.43,0,.87,0a11.8,11.8,0,0,0,6.81-2.13,11.61,11.61,0,0,1,1.33.36,8.64,8.64,0,0,0-3.62,7.14,8.74,8.74,0,0,0,3.41,6.82Zm24.63,0a6.88,6.88,0,1,1,0-13.76,6.91,6.91,0,0,1,6.87,6.87A6.89,6.89,0,0,1,30.9,37.37Z"/><path class="cls-1" d="M30.88,36.21a2.17,2.17,0,0,1-2.15-1.7,3,3,0,0,1-.06-.71c0-.13,0-.26,0-.39a2.5,2.5,0,0,1,0-.4,1.56,1.56,0,0,0,0-.37h-.07l-.25,0a1.93,1.93,0,0,1-.33,0h-.6a2.43,2.43,0,0,1-.63-.06,2.16,2.16,0,0,1-1.67-2.29,2.18,2.18,0,0,1,2.11-2h1.42c0-.4,0-.74,0-1.08V27a2.17,2.17,0,0,1,2.16-2.23A2.2,2.2,0,0,1,33.06,27c0,.45,0,.89,0,1.34H34.4a2.19,2.19,0,0,1,0,4.37H33.06c0,.46,0,.91,0,1.35a2.2,2.2,0,0,1-1.91,2.17Zm-1.57-5a.76.76,0,0,1,.84.84V34a.71.71,0,0,0,.69.77h0a.7.7,0,0,0,.74-.72c0-.42,0-.84,0-1.26v-.62c0-.68.25-.93,1-.93h1.78a.84.84,0,0,0,.61-.23.72.72,0,0,0-.6-1.2H32.46c-.62,0-.87-.26-.88-.89v-.66c0-.41,0-.82,0-1.22a.72.72,0,1,0-1.43,0V28.9a.77.77,0,0,1-.87.88H27.42a.72.72,0,1,0,0,1.43h1.89Z"/></svg>